<svg xmlns="http://www.w3.org/2000/svg" width="31.995" height="32" viewBox="0 0 31.995 32"><defs><style>.a{fill:red;}.b{fill:#fff;}</style></defs><path class="a" d="M31.995,16A16,16,0,1,0,16,32,16,16,0,0,0,31.995,16Zm0,0"/><path class="b" d="M230.807,139.138h-2.032a.729.729,0,0,1-.729-.729v-9.2a.729.729,0,0,1,.729-.729h2.032a.729.729,0,0,1,.729.729v9.2A.729.729,0,0,1,230.807,139.138Zm0,0" transform="translate(-213.794 -120.45)"/><path class="b" d="M229.791,339.458a1.745,1.745,0,0,1-1.744-1.745h0a1.745,1.745,0,1,1,3.489,0h0A1.745,1.745,0,0,1,229.791,339.458Zm0,0" transform="translate(-213.794 -314.971)"/></svg>